<?xml version="1.0" encoding="UTF-8"?>
<svg version="1.1" xmlns="http://www.w3.org/2000/svg" width="64" height="64">
<path d="M0 0 C21.12 0 42.24 0 64 0 C64 21.12 64 42.24 64 64 C42.88 64 21.76 64 0 64 C0 42.88 0 21.76 0 0 Z " fill="#FDFDFD" transform="translate(0,0)"/>
<path d="M0 0 C0.99 0 1.98 0 3 0 C3.2475 0.70125 3.495 1.4025 3.75 2.125 C5.82595856 6.89970469 8.31632408 11.43153256 13 14 C13.99 13.67 14.98 13.34 16 13 C14.99796679 16.00609963 14.39971554 17.06176821 12 19 C11.01 19 10.02 19 9 19 C9.33 21.97 9.66 24.94 10 28 C9.34 28.33 8.68 28.66 8 29 C8 30.98 8 32.96 8 35 C6.515 34.505 6.515 34.505 5 34 C5 32.68 5 31.36 5 30 C2.36 30 -0.28 30 -3 30 C-3.33 31.98 -3.66 33.96 -4 36 C-3.41992188 35.98839844 -2.83984375 35.97679687 -2.2421875 35.96484375 C7.77749361 35.84910486 7.77749361 35.84910486 11 37 C12.5 40 12.5 40 13.14453125 41.88671875 C14.51769936 45.2788829 16.68827644 48.10678494 18.79296875 51.08203125 C20 53 20 53 20 55 C17.2421875 54.94140625 17.2421875 54.94140625 14 54 C12.37521438 51.57481261 11.25798 49.5716785 10.125 46.9375 C9.81820312 46.27427734 9.51140625 45.61105469 9.1953125 44.92773438 C8.44324948 43.29434751 7.71885841 41.64827001 7 40 C3.04 40 -0.92 40 -5 40 C-5.52787109 41.39025391 -5.52787109 41.39025391 -6.06640625 42.80859375 C-6.56011719 44.00613281 -7.05382813 45.20367187 -7.5625 46.4375 C-8.03816406 47.63246094 -8.51382812 48.82742187 -9.00390625 50.05859375 C-11 53 -11 53 -14.71484375 53.91015625 C-15.79894531 53.93980469 -16.88304687 53.96945313 -18 54 C-16.94200248 51.84426797 -15.84843198 49.72905539 -14.67578125 47.6328125 C-11.71652152 42.31991251 -11.71652152 42.31991251 -11.1875 36.375 C-11.455625 35.59125 -11.72375 34.8075 -12 34 C-10.68 34.33 -9.36 34.66 -8 35 C-7.92572162 31.65747276 -7.93453047 29.1964086 -9 26 C-9.03920815 24.00038436 -9.04443347 21.99950636 -9 20 C-9.61875 19.690625 -10.2375 19.38125 -10.875 19.0625 C-12.25 18.375 -13.625 17.6875 -15 17 C-15 16.34 -15 15.68 -15 15 C-14.01 15 -13.02 15 -12 15 C-11.773125 14.443125 -11.54625 13.88625 -11.3125 13.3125 C-8.61159416 8.55376114 -5.20988728 5.63739315 0 4 C0 2.68 0 1.36 0 0 Z " fill="#4B2109" transform="translate(32,4)"/>
<path d="M0 0 C1.23556641 0.01740234 1.23556641 0.01740234 2.49609375 0.03515625 C3.32238281 0.04417969 4.14867188 0.05320313 5 0.0625 C5.63808594 0.07410156 6.27617188 0.08570313 6.93359375 0.09765625 C6.93359375 0.42765625 6.93359375 0.75765625 6.93359375 1.09765625 C4.29359375 1.09765625 1.65359375 1.09765625 -1.06640625 1.09765625 C-1.39640625 3.07765625 -1.72640625 5.05765625 -2.06640625 7.09765625 C-1.19628906 7.08025391 -1.19628906 7.08025391 -0.30859375 7.0625 C9.71108736 6.94676111 9.71108736 6.94676111 12.93359375 8.09765625 C14.43359375 11.09765625 14.43359375 11.09765625 15.078125 12.984375 C16.45129311 16.37653915 18.62187019 19.20444119 20.7265625 22.1796875 C21.93359375 24.09765625 21.93359375 24.09765625 21.93359375 26.09765625 C19.17578125 26.0390625 19.17578125 26.0390625 15.93359375 25.09765625 C14.30880813 22.67246886 13.19157375 20.66933475 12.05859375 18.03515625 C11.75179687 17.37193359 11.445 16.70871094 11.12890625 16.02539062 C10.37684323 14.39200376 9.65245216 12.74592626 8.93359375 11.09765625 C4.97359375 11.09765625 1.01359375 11.09765625 -3.06640625 11.09765625 C-3.453125 12.02449219 -3.83984375 12.95132813 -4.23828125 13.90625 C-4.7590625 15.10378906 -5.27984375 16.30132812 -5.81640625 17.53515625 C-6.326875 18.73011719 -6.83734375 19.92507812 -7.36328125 21.15625 C-9.06640625 24.09765625 -9.06640625 24.09765625 -11.26953125 25.0078125 C-11.8625 25.03746094 -12.45546875 25.06710938 -13.06640625 25.09765625 C-12.58429687 24.21722656 -12.1021875 23.33679688 -11.60546875 22.4296875 C-10.96730323 21.25658912 -10.32929048 20.08340761 -9.69140625 18.91015625 C-9.06492187 17.76160156 -8.4384375 16.61304687 -7.79296875 15.4296875 C-5.28103663 10.5819995 -3.9222318 6.47713111 -3.06640625 1.09765625 C-2.06640625 0.09765625 -2.06640625 0.09765625 0 0 Z " fill="#552F19" transform="translate(30.06640625,32.90234375)"/>
<path d="M0 0 C0.99 0 1.98 0 3 0 C3.2475 0.70125 3.495 1.4025 3.75 2.125 C5.74367542 6.71045347 7.80988036 10.20658691 12 13 C11.67 14.32 11.34 15.64 11 17 C8.525 16.01 8.525 16.01 6 15 C6 16.32 6 17.64 6 19 C0.58461538 19.36923077 0.58461538 19.36923077 -2.375 17.5 C-2.91125 17.005 -3.4475 16.51 -4 16 C-3.54979057 10.14727744 -0.96160773 5.91779881 2 1 C1.34 0.67 0.68 0.34 0 0 Z " fill="#142F54" transform="translate(32,4)"/>
<path d="M0 0 C0.66 0.33 1.32 0.66 2 1 C2.625 3.5625 2.625 3.5625 3 6 C3.69867188 6.04898437 4.39734375 6.09796875 5.1171875 6.1484375 C6.48230469 6.26058594 6.48230469 6.26058594 7.875 6.375 C8.77992187 6.44460937 9.68484375 6.51421875 10.6171875 6.5859375 C13 7 13 7 15 9 C15.125 12.125 15.125 12.125 15 15 C14.01 14.67 13.02 14.34 12 14 C12 12.35 12 10.7 12 9 C7.545 9.495 7.545 9.495 3 10 C2.67 12.31 2.34 14.62 2 17 C1.34 17 0.68 17 0 17 C-0.061875 17.804375 -0.12375 18.60875 -0.1875 19.4375 C-1.42903013 24.8811321 -4.02793474 30.02793474 -8 34 C-8.99 34 -9.98 34 -11 34 C-9.94200248 31.84426797 -8.84843198 29.72905539 -7.67578125 27.6328125 C-4.71652152 22.31991251 -4.71652152 22.31991251 -4.1875 16.375 C-4.455625 15.59125 -4.72375 14.8075 -5 14 C-3.68 14.33 -2.36 14.66 -1 15 C-0.92572162 11.65747276 -0.93453047 9.1964086 -2 6 C-1.34 6 -0.68 6 0 6 C0 4.02 0 2.04 0 0 Z " fill="#2C160A" transform="translate(25,24)"/>
<path d="M0 0 C2.51083114 1.25541557 2.87125446 2.50063488 4 5 C4.66 5 5.32 5 6 5 C5.87625 6.11375 5.7525 7.2275 5.625 8.375 C5.56102646 13.49288282 7.97356041 16.779864 10.78515625 20.8984375 C11.18605469 21.59195313 11.58695313 22.28546875 12 23 C11.67 23.66 11.34 24.32 11 25 C9.84072025 23.46841892 8.69812453 21.92420207 7.5625 20.375 C6.92441406 19.51648438 6.28632812 18.65796875 5.62890625 17.7734375 C4 15 4 15 3 9 C-1.95 8.67 -6.9 8.34 -12 8 C-11.67 6.02 -11.34 4.04 -11 2 C-8.36 2 -5.72 2 -3 2 C-2.87625 2.639375 -2.7525 3.27875 -2.625 3.9375 C-2.41875 4.618125 -2.2125 5.29875 -2 6 C-1.34 6.33 -0.68 6.66 0 7 C-0.185625 6.030625 -0.37125 5.06125 -0.5625 4.0625 C-0.706875 3.051875 -0.85125 2.04125 -1 1 C-0.67 0.67 -0.34 0.34 0 0 Z " fill="#BD7B53" transform="translate(40,32)"/>
<path d="M0 0 C0.66 0 1.32 0 2 0 C1.21061299 3.76218489 -0.37703219 6.67944994 -2.2578125 10 C-3.17186846 12.46314026 -2.95749337 13.58106937 -2 16 C-1.34 16.66 -0.68 17.32 0 18 C-1.74714233 18.25002209 -3.49799141 18.47423194 -5.25 18.6875 C-6.22453125 18.81511719 -7.1990625 18.94273438 -8.203125 19.07421875 C-11.50165663 18.98668788 -12.69405723 18.31143311 -15 16 C-15 15.34 -15 14.68 -15 14 C-14.01 14 -13.02 14 -12 14 C-11.6596875 13.1646875 -11.6596875 13.1646875 -11.3125 12.3125 C-8.61159416 7.55376114 -5.20988728 4.63739315 0 3 C0 2.01 0 1.02 0 0 Z " fill="#18161A" transform="translate(32,5)"/>
<path d="M0 0 C-1.00203321 3.00609963 -1.60028446 4.06176821 -4 6 C-4.99 6 -5.98 6 -7 6 C-6.67 8.97 -6.34 11.94 -6 15 C-8.4375 14.625 -8.4375 14.625 -11 14 C-12.35439668 11.29120665 -12.06501451 8.99066732 -12 6 C-11.34 6 -10.68 6 -10 6 C-10 4.68 -10 3.36 -10 2 C-7.525 2.99 -7.525 2.99 -5 4 C-5 3.34 -5 2.68 -5 2 C-2 0 -2 0 0 0 Z " fill="#B54808" transform="translate(48,17)"/>
<path d="M0 0 C0.66 0.33 1.32 0.66 2 1 C2.625 3.5625 2.625 3.5625 3 6 C3.69867188 6.04898437 4.39734375 6.09796875 5.1171875 6.1484375 C6.02726562 6.22320313 6.93734375 6.29796875 7.875 6.375 C8.77992187 6.44460937 9.68484375 6.51421875 10.6171875 6.5859375 C13 7 13 7 15 9 C15.125 12.125 15.125 12.125 15 15 C14.01 14.67 13.02 14.34 12 14 C12 12.35 12 10.7 12 9 C10.54052295 9.06006078 9.08220728 9.1488689 7.625 9.25 C6.81289063 9.29640625 6.00078125 9.3428125 5.1640625 9.390625 C2.81161073 9.7922092 2.81161073 9.7922092 1.7109375 12.046875 C1.47632813 12.69140625 1.24171875 13.3359375 1 14 C0.67 14 0.34 14 0 14 C-0.66 11.36 -1.32 8.72 -2 6 C-1.34 6 -0.68 6 0 6 C0 4.02 0 2.04 0 0 Z " fill="#250F02" transform="translate(25,24)"/>
<path d="M0 0 C3.50886032 1.40354413 4.4267148 2.64365823 6 6 C6.99 6.66 7.98 7.32 9 8 C8.67 9.32 8.34 10.64 8 12 C7.01 11.67 6.02 11.34 5 11 C5 10.34 5 9.68 5 9 C4.360625 8.814375 3.72125 8.62875 3.0625 8.4375 C1 7 1 7 0.25 3.375 C0.1675 2.26125 0.085 1.1475 0 0 Z " fill="#3A79C4" transform="translate(35,9)"/>
<path d="M0 0 C0.99 0.33 1.98 0.66 3 1 C3.33 3.64 3.66 6.28 4 9 C2.02 9 0.04 9 -2 9 C-2.125 5.625 -2.125 5.625 -2 2 C-1.34 1.34 -0.68 0.68 0 0 Z " fill="#702B01" transform="translate(33,22)"/>
<path d="M0 0 C2.64 0 5.28 0 8 0 C8 1.65 8 3.3 8 5 C5.36 5 2.72 5 0 5 C0 3.35 0 1.7 0 0 Z " fill="#FCFCFC" transform="translate(29,34)"/>
<path d="M0 0 C0.66 0.33 1.32 0.66 2 1 C-0.64 4.3 -3.28 7.6 -6 11 C-7.32 10.67 -8.64 10.34 -10 10 C-10 9.34 -10 8.68 -10 8 C-9.01 8 -8.02 8 -7 8 C-6.773125 7.4225 -6.54625 6.845 -6.3125 6.25 C-4.66961977 3.4336339 -2.60466773 1.91922886 0 0 Z " fill="#1A100B" transform="translate(27,11)"/>
<path d="M0 0 C1 2 1 2 0.3125 5.0625 C-1 8 -1 8 -3.125 8.875 C-3.74375 8.91625 -4.3625 8.9575 -5 9 C-5 4.61031544 -2.87194899 3.23094261 0 0 Z " fill="#07172A" transform="translate(26,15)"/>
<path d="M0 0 C1.02080855 2.03311036 2.03126761 4.06644368 3 6.125 C3.97140377 8.16551151 3.97140377 8.16551151 6 10 C5.34 10 4.68 10 4 10 C3.67 10.99 3.34 11.98 3 13 C0.75393573 11.22555028 0.04918998 10.41647515 -0.29296875 7.51953125 C-0.25816406 6.62621094 -0.22335938 5.73289062 -0.1875 4.8125 C-0.16042969 3.91144531 -0.13335937 3.01039062 -0.10546875 2.08203125 C-0.07066406 1.39496094 -0.03585938 0.70789062 0 0 Z " fill="#01418F" transform="translate(34,9)"/>
<path d="M0 0 C2 3 2 3 3 6 C2.34 6 1.68 6 1 6 C0.67 6.99 0.34 7.98 0 9 C-1.37562854 7.71034824 -2.70766393 6.37310707 -4 5 C-4 4.34 -4 3.68 -4 3 C-2.68 3.33 -1.36 3.66 0 4 C0 2.68 0 1.36 0 0 Z " fill="#372317" transform="translate(24,35)"/>
<path d="M0 0 C0.33 0 0.66 0 1 0 C1.36521739 5.47826087 1.36521739 5.47826087 -0.3125 7.875 C-2 9 -2 9 -5 9 C-3.50164236 5.88802644 -1.86022073 2.91164984 0 0 Z " fill="#311D12" transform="translate(19,49)"/>
<path d="M0 0 C2.51083114 1.25541557 2.87125446 2.50063488 4 5 C4.66 5 5.32 5 6 5 C6 5.99 6 6.98 6 8 C4.02 7.34 2.04 6.68 0 6 C-0.38218767 4.34385343 -0.71395102 2.67542976 -1 1 C-0.67 0.67 -0.34 0.34 0 0 Z " fill="#D87C46" transform="translate(40,32)"/>
<path d="M0 0 C-1.00510975 3.01532925 -1.46155991 4.18682851 -4 6 C-6.6875 5.6875 -6.6875 5.6875 -9 5 C-9.33 4.01 -9.66 3.02 -10 2 C-7.525 2.99 -7.525 2.99 -5 4 C-5 3.34 -5 2.68 -5 2 C-2 0 -2 0 0 0 Z " fill="#523022" transform="translate(48,17)"/>
<path d="M0 0 C0.66 0.33 1.32 0.66 2 1 C1.43457996 2.32031595 0.84693528 3.6311301 0.25 4.9375 C-0.23726562 6.03384766 -0.23726562 6.03384766 -0.734375 7.15234375 C-2 9 -2 9 -6 10 C-4.02 6.7 -2.04 3.4 0 0 Z " fill="#59280B" transform="translate(23,48)"/>
<path d="M0 0 C0.268125 0.598125 0.53625 1.19625 0.8125 1.8125 C1.98493467 3.97224808 3.19369282 5.35790256 5 7 C2.69 7 0.38 7 -2 7 C-1.34 4.69 -0.68 2.38 0 0 Z " fill="#020C1A" transform="translate(27,16)"/>
<path d="M0 0 C1.32 0.33 2.64 0.66 4 1 C4 2.98 4 4.96 4 7 C3.01 6.67 2.02 6.34 1 6 C0.67 4.02 0.34 2.04 0 0 Z " fill="#2F1506" transform="translate(36,32)"/>
<path d="M0 0 C0.66 0.33 1.32 0.66 2 1 C0.35 2.65 -1.3 4.3 -3 6 C-3 4.68 -3 3.36 -3 2 C-2.01 1.34 -1.02 0.68 0 0 Z " fill="#090D12" transform="translate(27,11)"/>
</svg>
